<svg id="visual" viewBox="0 0 960 540" width="960" height="540" xmlns="http://www.w3.org/2000/svg" xmlns:xlink="http://www.w3.org/1999/xlink" version="1.1"><rect x="0" y="0" width="960" height="540" fill="#001220"></rect><path d="M0 328L22.8 325C45.7 322 91.3 316 137 316.7C182.7 317.3 228.3 324.7 274 311C319.7 297.3 365.3 262.7 411.2 254.8C457 247 503 266 548.8 281.7C594.7 297.3 640.3 309.7 686 317.7C731.7 325.7 777.3 329.3 823 330C868.7 330.7 914.3 328.3 937.2 327.2L960 326L960 541L937.2 541C914.3 541 868.7 541 823 541C777.3 541 731.7 541 686 541C640.3 541 594.7 541 548.8 541C503 541 457 541 411.2 541C365.3 541 319.7 541 274 541C228.3 541 182.7 541 137 541C91.3 541 45.7 541 22.8 541L0 541Z" fill="#163759"></path><path d="M0 325L22.8 329.5C45.7 334 91.3 343 137 336.3C182.7 329.7 228.3 307.3 274 299.2C319.7 291 365.3 297 411.2 312.3C457 327.7 503 352.3 548.8 356.2C594.7 360 640.3 343 686 333C731.7 323 777.3 320 823 319.7C868.7 319.3 914.3 321.7 937.2 322.8L960 324L960 541L937.2 541C914.3 541 868.7 541 823 541C777.3 541 731.7 541 686 541C640.3 541 594.7 541 548.8 541C503 541 457 541 411.2 541C365.3 541 319.7 541 274 541C228.3 541 182.7 541 137 541C91.3 541 45.7 541 22.8 541L0 541Z" fill="#41607d"></path><path d="M0 356L22.8 356.7C45.7 357.3 91.3 358.7 137 367.7C182.7 376.7 228.3 393.3 274 397.3C319.7 401.3 365.3 392.7 411.2 388.7C457 384.7 503 385.3 548.8 380C594.7 374.7 640.3 363.3 686 357.8C731.7 352.3 777.3 352.7 823 359.5C868.7 366.3 914.3 379.7 937.2 386.3L960 393L960 541L937.2 541C914.3 541 868.7 541 823 541C777.3 541 731.7 541 686 541C640.3 541 594.7 541 548.8 541C503 541 457 541 411.2 541C365.3 541 319.7 541 274 541C228.3 541 182.7 541 137 541C91.3 541 45.7 541 22.8 541L0 541Z" fill="#6e8ba1"></path><path d="M0 403L22.8 407.8C45.7 412.7 91.3 422.3 137 429.2C182.7 436 228.3 440 274 439.2C319.7 438.3 365.3 432.7 411.2 429C457 425.3 503 423.7 548.8 420.2C594.7 416.7 640.3 411.3 686 412.2C731.7 413 777.3 420 823 418.2C868.7 416.3 914.3 405.7 937.2 400.3L960 395L960 541L937.2 541C914.3 541 868.7 541 823 541C777.3 541 731.7 541 686 541C640.3 541 594.7 541 548.8 541C503 541 457 541 411.2 541C365.3 541 319.7 541 274 541C228.3 541 182.7 541 137 541C91.3 541 45.7 541 22.8 541L0 541Z" fill="#9fb8c7"></path><path d="M0 496L22.8 490.5C45.7 485 91.3 474 137 472.5C182.7 471 228.3 479 274 480.8C319.7 482.7 365.3 478.3 411.2 472.8C457 467.3 503 460.7 548.8 456.2C594.7 451.7 640.3 449.3 686 458.2C731.7 467 777.3 487 823 493.3C868.7 499.7 914.3 492.3 937.2 488.7L960 485L960 541L937.2 541C914.3 541 868.7 541 823 541C777.3 541 731.7 541 686 541C640.3 541 594.7 541 548.8 541C503 541 457 541 411.2 541C365.3 541 319.7 541 274 541C228.3 541 182.7 541 137 541C91.3 541 45.7 541 22.8 541L0 541Z" fill="#d4e7ef"></path></svg>